<svg viewBox="0 0 91 91" xml:space="preserve" xmlns="http://www.w3.org/2000/svg"><path d="M24.4 74.818h42.783a1.7 1.7 0 0 0 1.699-1.701V21.836c0-.938-.76-1.699-1.699-1.699H24.4c-.939 0-1.699.761-1.699 1.699v51.282c0 .939.76 1.7 1.699 1.7zm1.702-51.282h39.381v7.366H26.102v-7.366zm0 10.766h39.381v37.116H26.102V34.302z" fill="#ffffff" class="fill-000000"></path><path d="M38.283 38.552h-3.4v3.966h-3.967v3.4h3.967v3.967h3.4v-3.967h3.967v-3.4h-3.967zM39.389 54.309l-2.805 2.804-2.805-2.804-2.404 2.404 2.805 2.805-2.805 2.804 2.404 2.405 2.805-2.805 2.805 2.805 2.404-2.405-2.805-2.804 2.805-2.805zM49.332 42.518h11.334v3.4H49.332zM49.332 57.818h11.334v3.399H49.332zM53.229 53.615h3.541v3.4h-3.541zM53.229 62.009h3.541v3.399h-3.541z" fill="#ffffff" class="fill-000000"></path></svg>