<svg width="27" height="27" viewBox="0 0 27 27" fill="none" xmlns="http://www.w3.org/2000/svg">
<path d="M23.625 23.625C23.625 23.625 23.625 22.2328 23.509 21.5051C23.4141 20.9303 22.6178 20.1709 19.2322 18.9264C15.8994 17.7029 16.1051 18.2988 16.1051 16.0471C16.1051 14.5863 16.8486 15.4354 17.3232 12.6615C17.5078 11.5699 17.6555 12.2977 18.0562 10.5469C18.2672 9.6293 17.9139 9.56074 17.9561 9.12305C17.9982 8.68535 18.0404 8.29512 18.1195 7.39863C18.2145 6.29121 17.1861 3.375 13.5 3.375C9.81387 3.375 8.78555 6.29121 8.88574 7.40391C8.96484 8.29512 9.00703 8.69063 9.04922 9.12832C9.09141 9.56602 8.73809 9.63457 8.94902 10.5521C9.3498 12.2977 9.49746 11.5699 9.68203 12.6668C10.1566 15.4406 10.9002 14.5916 10.9002 16.0523C10.9002 18.3094 11.1059 17.7135 7.77305 18.9316C4.3875 20.1709 3.58594 20.9355 3.49629 21.5104C3.375 22.2328 3.375 23.625 3.375 23.625H13.5H23.625Z" fill="white"/>
</svg>
