<svg width="11" height="11" viewBox="0 0 11 11" fill="none" xmlns="http://www.w3.org/2000/svg">
<path d="M8.64289 6.6785C8.64289 6.7849 8.60402 6.87698 8.52626 6.95473L5.77626 9.70473C5.69851 9.78248 5.60643 9.82136 5.50004 9.82136C5.39364 9.82136 5.30156 9.78248 5.22381 9.70473L2.47381 6.95473C2.39605 6.87698 2.35718 6.7849 2.35718 6.6785C2.35718 6.5721 2.39605 6.48003 2.47381 6.40227C2.55156 6.32452 2.64364 6.28564 2.75003 6.28564H8.25004C8.35643 6.28564 8.44851 6.32452 8.52626 6.40227C8.60402 6.48003 8.64289 6.5721 8.64289 6.6785Z" fill="#C5B4B4"/>
<path d="M2.35711 4.3215C2.35711 4.2151 2.39598 4.12302 2.47374 4.04527L5.22374 1.29527C5.30149 1.21752 5.39357 1.17864 5.49996 1.17864C5.60636 1.17864 5.69844 1.21752 5.77619 1.29527L8.52619 4.04527C8.60395 4.12302 8.64282 4.2151 8.64282 4.3215C8.64282 4.4279 8.60395 4.51997 8.52619 4.59773C8.44844 4.67548 8.35636 4.71436 8.24997 4.71436L2.74996 4.71436C2.64357 4.71436 2.55149 4.67548 2.47374 4.59773C2.39598 4.51997 2.35711 4.4279 2.35711 4.3215Z" fill="#808080"/>
</svg>
