<svg width="26" height="26" viewBox="0 0 26 26" fill="none" xmlns="http://www.w3.org/2000/svg">
<path d="M13 3.25C7.62125 3.25 3.25 7.62125 3.25 13C3.25 18.3787 7.62125 22.75 13 22.75C18.3787 22.75 22.75 18.3787 22.75 13C22.75 7.62125 18.3787 3.25 13 3.25ZM13 21.125C8.515 21.125 4.875 17.485 4.875 13C4.875 8.515 8.515 4.875 13 4.875C17.485 4.875 21.125 8.515 21.125 13C21.125 17.485 17.485 21.125 13 21.125Z" fill="#808080"/>
<path d="M13.6986 7.39373C12.1386 7.00373 10.3999 7.99498 9.92863 9.52248C9.78238 9.96123 10.0261 10.4162 10.4486 10.5462C10.8711 10.6762 11.3261 10.4487 11.4724 10.01C11.6999 9.29498 12.5774 8.79123 13.3249 8.96998C14.0561 9.14873 14.6086 10.01 14.4624 10.7575C14.3324 11.505 13.5361 12.1062 12.7724 12.0087C12.5449 11.9762 12.3011 12.0575 12.1386 12.2037C11.9599 12.3662 11.8624 12.5775 11.8624 12.8212L11.8461 15.3562C11.8461 15.8112 12.2036 16.1687 12.6586 16.1687C13.1136 16.1687 13.4711 15.8112 13.4711 15.3562L13.4874 13.585C14.7386 13.3412 15.8436 12.3175 16.0711 11.0337C16.3636 9.45748 15.2749 7.78373 13.6986 7.39373Z" fill="#808080"/>
<path d="M12.6913 16.8838H12.675C12.2363 16.8838 11.8788 17.2575 11.8625 17.6963C11.8625 17.7125 11.8625 17.8588 11.8625 17.875C11.8625 18.3138 12.22 18.6063 12.6588 18.6225H12.675C13.1138 18.6225 13.4713 18.2163 13.4875 17.7775C13.4875 17.7613 13.4875 17.6638 13.4875 17.6475C13.4713 17.2088 13.13 16.8838 12.6913 16.8838Z" fill="#808080"/>
</svg>
