<svg width="27" height="27" viewBox="0 0 27 27" fill="none" xmlns="http://www.w3.org/2000/svg">
<path d="M16.9992 12.7575C18.3222 11.7153 19.1781 10.1007 19.1781 8.2863C19.1781 5.1489 16.6347 2.6001 13.5054 2.6001C10.3761 2.6001 7.83272 5.1516 7.83272 8.2863C7.83272 10.1007 8.68592 11.7153 10.0116 12.7575C6.52322 14.1534 4.05272 17.5689 4.05272 21.5568V23.4522C4.05272 23.976 4.47662 24.3999 4.99772 24.3999H22.0158C22.5369 24.3999 22.9608 23.976 22.9608 23.4522V21.5568C22.9581 17.5689 20.4876 14.1561 16.9992 12.7575ZM9.40142 8.2782C9.40142 6.0102 11.2401 4.1634 13.5054 4.1634C15.768 4.1634 17.6094 6.0075 17.6094 8.2782C17.6094 10.5462 15.768 12.393 13.5054 12.393C11.2428 12.393 9.40142 10.5489 9.40142 8.2782ZM21.5379 22.8447H5.47292V21.8376C5.47292 17.3961 9.07742 13.7835 13.5054 13.7835C17.9334 13.7835 21.5352 17.3961 21.5352 21.8376V22.8447H21.5379ZM6.18032 13.6377L6.36392 13.5945C6.76082 13.4622 7.04162 13.1112 7.04162 12.7035C7.04162 12.3066 6.77702 11.9691 6.40442 11.826C5.39192 11.3643 4.73852 10.3518 4.73852 9.2367C4.73852 7.9731 5.82662 6.9093 6.96602 6.5394C7.16582 5.9238 7.46552 5.3514 7.85162 4.8465C7.91912 4.7358 7.98932 4.6251 8.06222 4.5198C7.98662 4.5171 7.91372 4.4982 7.83542 4.4982C5.22992 4.4982 3.10772 6.6231 3.10772 9.2367C3.10772 10.4355 3.56402 11.5614 4.33892 12.4173C1.87382 13.6944 0.27002 16.2513 0.27002 19.143V20.6091C0.27002 21.1329 0.69392 21.5568 1.21502 21.5568H2.90792C2.90792 20.9061 2.97542 20.4903 3.09962 19.8774H1.90352V19.143C1.90352 16.524 3.65852 14.2749 6.18032 13.6377ZM22.6665 12.4173C23.4387 11.5614 23.895 10.4382 23.895 9.2367C23.895 6.6231 21.7755 4.4955 19.1673 4.4955C19.089 4.4955 19.0161 4.5144 18.9405 4.5171C19.0134 4.6251 19.0836 4.7331 19.1511 4.8438C19.5345 5.3487 19.8369 5.9184 20.034 6.5367C21.1734 6.9066 22.4181 7.9704 22.4181 9.234C22.4181 10.3491 21.7647 11.3616 20.7522 11.8233C20.3796 11.9664 20.115 12.3039 20.115 12.7008C20.115 13.1112 20.3985 13.4595 20.7927 13.5918L20.9763 13.635C23.4981 14.2722 25.2531 16.5213 25.2531 19.1403V19.8774H23.8977C24.0219 20.4903 24.0867 20.9061 24.0867 21.5568H25.785C26.3088 21.5568 26.73 21.1329 26.73 20.6091V19.143C26.7327 16.2513 25.1262 13.6944 22.6665 12.4173Z" fill="white"/>
</svg>
