<svg width="27" height="23" viewBox="0 0 27 23" fill="none" xmlns="http://www.w3.org/2000/svg">
<path d="M16.9992 10.7575C18.3222 9.7153 19.1781 8.1007 19.1781 6.2863C19.1781 3.1489 16.6347 0.600098 13.5054 0.600098C10.3761 0.600098 7.83272 3.1516 7.83272 6.2863C7.83272 8.1007 8.68592 9.7153 10.0116 10.7575C6.52322 12.1534 4.05272 15.5689 4.05272 19.5568V21.4522C4.05272 21.976 4.47662 22.3999 4.99772 22.3999H22.0158C22.5369 22.3999 22.9608 21.976 22.9608 21.4522V19.5568C22.9581 15.5689 20.4876 12.1561 16.9992 10.7575ZM9.40142 6.2782C9.40142 4.0102 11.2401 2.1634 13.5054 2.1634C15.768 2.1634 17.6094 4.0075 17.6094 6.2782C17.6094 8.5462 15.768 10.393 13.5054 10.393C11.2428 10.393 9.40142 8.5489 9.40142 6.2782ZM21.5379 20.8447H5.47292V19.8376C5.47292 15.3961 9.07742 11.7835 13.5054 11.7835C17.9334 11.7835 21.5352 15.3961 21.5352 19.8376V20.8447H21.5379ZM6.18032 11.6377L6.36392 11.5945C6.76082 11.4622 7.04162 11.1112 7.04162 10.7035C7.04162 10.3066 6.77702 9.9691 6.40442 9.826C5.39192 9.3643 4.73852 8.3518 4.73852 7.2367C4.73852 5.9731 5.82662 4.9093 6.96602 4.5394C7.16582 3.9238 7.46552 3.3514 7.85162 2.8465C7.91912 2.7358 7.98932 2.6251 8.06222 2.5198C7.98662 2.5171 7.91372 2.4982 7.83542 2.4982C5.22992 2.4982 3.10772 4.6231 3.10772 7.2367C3.10772 8.4355 3.56402 9.5614 4.33892 10.4173C1.87382 11.6944 0.27002 14.2513 0.27002 17.143V18.6091C0.27002 19.1329 0.69392 19.5568 1.21502 19.5568H2.90792C2.90792 18.9061 2.97542 18.4903 3.09962 17.8774H1.90352V17.143C1.90352 14.524 3.65852 12.2749 6.18032 11.6377ZM22.6665 10.4173C23.4387 9.5614 23.895 8.4382 23.895 7.2367C23.895 4.6231 21.7755 2.4955 19.1673 2.4955C19.089 2.4955 19.0161 2.5144 18.9405 2.5171C19.0134 2.6251 19.0836 2.7331 19.1511 2.8438C19.5345 3.3487 19.8369 3.9184 20.034 4.5367C21.1734 4.9066 22.4181 5.9704 22.4181 7.234C22.4181 8.3491 21.7647 9.3616 20.7522 9.8233C20.3796 9.9664 20.115 10.3039 20.115 10.7008C20.115 11.1112 20.3985 11.4595 20.7927 11.5918L20.9763 11.635C23.4981 12.2722 25.2531 14.5213 25.2531 17.1403V17.8774H23.8977C24.0219 18.4903 24.0867 18.9061 24.0867 19.5568H25.785C26.3088 19.5568 26.73 19.1329 26.73 18.6091V17.143C26.7327 14.2513 25.1262 11.6944 22.6665 10.4173Z" fill="#808080"/>
</svg>
