<svg width="21" height="21" viewBox="0 0 21 21" fill="none" xmlns="http://www.w3.org/2000/svg">
<path d="M20.625 20.625C20.625 20.625 20.625 19.2328 20.509 18.5051C20.4141 17.9303 19.6178 17.1709 16.2322 15.9264C12.8994 14.7029 13.1051 15.2988 13.1051 13.0471C13.1051 11.5863 13.8486 12.4354 14.3232 9.66152C14.5078 8.56992 14.6555 9.29766 15.0562 7.54688C15.2672 6.6293 14.9139 6.56074 14.9561 6.12305C14.9982 5.68535 15.0404 5.29512 15.1195 4.39863C15.2145 3.29121 14.1861 0.375 10.5 0.375C6.81387 0.375 5.78555 3.29121 5.88574 4.40391C5.96484 5.29512 6.00703 5.69063 6.04922 6.12832C6.09141 6.56602 5.73809 6.63457 5.94902 7.55215C6.3498 9.29766 6.49746 8.56992 6.68203 9.6668C7.15664 12.4406 7.9002 11.5916 7.9002 13.0523C7.9002 15.3094 8.10586 14.7135 4.77305 15.9316C1.3875 17.1709 0.585938 17.9355 0.496289 18.5104C0.375 19.2328 0.375 20.625 0.375 20.625H10.5H20.625Z" fill="#808080"/>
</svg>
