<svg width="26" height="26" viewBox="0 0 26 26" fill="none" xmlns="http://www.w3.org/2000/svg">
<g clip-path="url(#clip0_86_231)">
<path d="M15.3746 0.318604C18.2256 0.318604 20.5368 2.62982 20.5368 5.48085V17.8702C20.5368 21.8617 17.3011 25.0974 13.3097 25.0974C9.31827 25.0974 6.08257 21.8617 6.08257 17.8702V9.61064H8.14746V17.8702C8.14746 20.7212 10.4587 23.0325 13.3097 23.0325C16.1607 23.0325 18.4719 20.7212 18.4719 17.8702V5.48085C18.4719 3.77023 17.0853 2.3835 15.3746 2.3835C13.6639 2.3835 12.2773 3.77023 12.2773 5.48085V17.8702C12.2773 18.4404 12.7395 18.9027 13.3097 18.9027C13.8799 18.9027 14.3422 18.4404 14.3422 17.8702V6.51329H16.407V17.8702C16.407 19.5809 15.0204 20.9676 13.3097 20.9676C11.599 20.9676 10.2124 19.5809 10.2124 17.8702V5.48085C10.2124 2.62982 12.5236 0.318604 15.3746 0.318604Z" fill="white" fill-opacity="0.8"/>
</g>
<defs>
<clipPath id="clip0_86_231">
<rect width="24.7788" height="24.7788" fill="white" transform="translate(0.920319 0.318604)"/>
</clipPath>
</defs>
</svg>
